HIERARCHY
ROOT root
{
  OFFSET 0 93.2929 0
  CHANNELS 6 Xposition Yposition Zposition Zrotation Xrotation Yrotation
  JOINT torso_1
  {
    OFFSET 0 5.07867 -1.15138
    CHANNELS 6 Xposition Yposition Zposition Zrotation Xrotation Yrotation
    JOINT torso_2
    {
      OFFSET 0 5.61661 1.07143
      CHANNELS 6 Xposition Yposition Zposition Zrotation Xrotation Yrotation
      JOINT torso_3
      {
        OFFSET -1.02604e-17 5.98978 0.11501
        CHANNELS 6 Xposition Yposition Zposition Zrotation Xrotation Yrotation
        JOINT torso_4
        {
          OFFSET -1.10457e-17 6.50583 -0.443523
          CHANNELS 6 Xposition Yposition Zposition Zrotation Xrotation Yrotation
          JOINT torso_5
          {
            OFFSET -1.97295e-17 7.60548 -1.50593
            CHANNELS 6 Xposition Yposition Zposition Zrotation Xrotation Yrotation
            JOINT torso_6
            {
              OFFSET -2.53307e-17 9.49737 -0.914492
              CHANNELS 6 Xposition Yposition Zposition Zrotation Xrotation Yrotation
              JOINT torso_7
              {
                OFFSET -2.90401e-17 10.5513 1.57691
                CHANNELS 6 Xposition Yposition Zposition Zrotation Xrotation Yrotation
                JOINT neck_1
                {
                  OFFSET -1.29193e-17 4.78644 0.715339
                  CHANNELS 6 Xposition Yposition Zposition Zrotation Xrotation Yrotation
                  JOINT neck_2
                  {
                    OFFSET -1.8116e-17 4.82109 0.421791
                    CHANNELS 6 Xposition Yposition Zposition Zrotation Xrotation Yrotation
                    JOINT head
                    {
                      OFFSET -2.00958e-17 4.83041 0.765062
                      CHANNELS 6 Xposition Yposition Zposition Zrotation Xrotation Yrotation
                      End Site
                      {
                        OFFSET 0 0.1 0
                      }
                    }
                  }
                }
                JOINT l_shoulder
                {
                  OFFSET 1.23299 -7.60731 7.53374
                  CHANNELS 6 Xposition Yposition Zposition Zrotation Xrotation Yrotation
                  JOINT l_up_arm
                  {
                    OFFSET 12.9547 3.2495 -3.26872
                    CHANNELS 6 Xposition Yposition Zposition Zrotation Xrotation Yrotation
                    JOINT l_low_arm
                    {
                      OFFSET 29.2081 0.0598081 0.137039
                      CHANNELS 6 Xposition Yposition Zposition Zrotation Xrotation Yrotation
                      JOINT l_hand
                      {
                        OFFSET 24.234 0.0496219 0.113701
                        CHANNELS 6 Xposition Yposition Zposition Zrotation Xrotation Yrotation
                        End Site
                        {
                          OFFSET 0.1 0 0
                        }
                      }
                    }
                  }
                }
                JOINT r_shoulder
                {
                  OFFSET -1.23299 -7.60729 7.53365
                  CHANNELS 6 Xposition Yposition Zposition Zrotation Xrotation Yrotation
                  JOINT r_up_arm
                  {
                    OFFSET -12.9547 3.2495 -3.26872
                    CHANNELS 6 Xposition Yposition Zposition Zrotation Xrotation Yrotation
                    JOINT r_low_arm
                    {
                      OFFSET -29.2081 0.0598081 0.137039
                      CHANNELS 6 Xposition Yposition Zposition Zrotation Xrotation Yrotation
                      JOINT r_hand
                      {
                        OFFSET -24.234 0.0496218 0.113702
                        CHANNELS 6 Xposition Yposition Zposition Zrotation Xrotation Yrotation
                        End Site
                        {
                          OFFSET -0.1 0 0
                        }
                      }
                    }
                  }
                }
              }
            }
          }
        }
      }
    }
  }
  JOINT l_up_leg
  {
    OFFSET 9.23673 -4.20556 2.0327
    CHANNELS 6 Xposition Yposition Zposition Zrotation Xrotation Yrotation
    JOINT l_low_leg
    {
      OFFSET -0.852353 -38.7721 -0.655187
      CHANNELS 6 Xposition Yposition Zposition Zrotation Xrotation Yrotation
      JOINT l_foot
      {
        OFFSET -2.32622 -40.4017 -6.04875
        CHANNELS 6 Xposition Yposition Zposition Zrotation Xrotation Yrotation
        JOINT l_toes
        {
          OFFSET 0.779096 -9.8844 12.4959
          CHANNELS 6 Xposition Yposition Zposition Zrotation Xrotation Yrotation
          End Site
          {
            OFFSET 0 0 0.1
          }
        }
      }
    }
  }
  JOINT r_up_leg
  {
    OFFSET -9.23673 -4.20556 2.0327
    CHANNELS 6 Xposition Yposition Zposition Zrotation Xrotation Yrotation
    JOINT r_low_leg
    {
      OFFSET 0.852353 -38.7721 -0.655187
      CHANNELS 6 Xposition Yposition Zposition Zrotation Xrotation Yrotation
      JOINT r_foot
      {
        OFFSET 2.32622 -40.4017 -6.04875
        CHANNELS 6 Xposition Yposition Zposition Zrotation Xrotation Yrotation
        JOINT r_toes
        {
          OFFSET -0.779096 -9.8844 12.4959
          CHANNELS 6 Xposition Yposition Zposition Zrotation Xrotation Yrotation
          End Site
          {
            OFFSET 0 0 0.1
          }
        }
      }
    }
  }
}
MOTION
Frames: 4
Frame Time: 0.016667
4.53901 92.8191 16.9812 8.88356 -0.0532265 -1.3156 0 5.07867 -1.15138 -1.7093 -4.57147 1.28104 0 5.61661 1.07143 -1.4142 -3.46662 1.04243 -1.02604e-17 5.98978 0.11501 -1.07408 -1.82334 0.933556 -1.10457e-17 6.50583 -0.443523 -0.831492 1.02212 0.877559 -1.97295e-17 7.60548 -1.50593 -0.136715 1.49234 0.96552 -2.53307e-17 9.49737 -0.914492 0.596417 1.23257 0.858449 -2.90401e-17 10.5513 1.57691 0.048969 -0.0605723 0.0702456 -1.29193e-17 4.78644 0.715339 0.708165 4.4417 0.505333 -1.8116e-17 4.82109 0.421791 -0.492059 -2.9015 0.0692583 -2.00958e-17 4.83041 0.765062 -0.83119 0.296334 -4.22253 1.23299 -7.60731 7.53374 28.2791 -3.77755 6.12833 12.9547 3.2495 -3.26872 6.0032 -53.5824 -20.181 29.2081 0.0598081 0.137039 5.98388 -1.57861 -30.1254 24.234 0.0496219 0.113701 -1.07763 -36.1027 4.0164 -1.23299 -7.60729 7.53365 -29.1577 -3.16099 -7.80522 -12.9547 3.2495 -3.26872 20.5091 -67.3334 63.532 -29.2081 0.0598081 0.137039 -3.16619 -0.412336 15.43 -24.234 0.0496218 0.113702 -0.394061 -32.3864 -9.39572 9.23673 -4.20556 2.0327 -2.77362 -8.76352 -0.435119 -0.852353 -38.7721 -0.655187 -3.13942 11.6303 0.116046 -2.32622 -40.4017 -6.04875 -5.69508 3.98017 15.855 0.779096 -9.8844 12.4959 1.51829e-15 -7.36044e-16 -4.66702e-17 -9.23673 -4.20556 2.0327 -21.0974 -13.8962 18.2087 0.852353 -38.7721 -0.655187 2.94543 10.9254 -0.0904154 2.32622 -40.4017 -6.04875 17.2156 -1.01848 -15.766 -0.779096 -9.8844 12.4959 -5.96354e-16 -5.59082e-16 -1.27471e-14 
5.18793 92.8702 17.4598 8.39085 0.792016 -1.61283 0 5.07867 -1.15138 -1.5406 -5.49435 1.19849 0 5.61661 1.07143 -1.22513 -4.11431 0.974932 -1.02604e-17 5.98978 0.11501 -0.903072 -2.05578 0.911847 -1.10457e-17 6.50583 -0.443523 -0.66621 1.21839 0.877188 -1.97295e-17 7.60548 -1.50593 -0.0264261 2.0651 0.942883 -2.53307e-17 9.49737 -0.914492 0.707772 2.1228 0.821668 -2.90401e-17 10.5513 1.57691 0.118298 -0.0610751 0.0375277 -1.29193e-17 4.78644 0.715339 1.26508 4.44455 1.64996 -1.8116e-17 4.82109 0.421791 -0.372674 -3.11318 0.602995 -2.00958e-17 4.83041 0.765062 -1.72384 -0.259274 -5.51835 1.23299 -7.60731 7.53374 25.504 -4.0203 6.55539 12.9547 3.2495 -3.26872 7.38031 -45.2189 -16.4676 29.2081 0.0598081 0.137039 5.0515 -1.09727 -25.0882 24.234 0.0496219 0.113701 -1.08507 -42.2692 -3.67914 -1.23299 -7.60729 7.53365 -25.266 -3.70914 -8.43079 -12.9547 3.2495 -3.26872 11.4549 -58.9144 40.9476 -29.2081 0.0598081 0.137039 -3.81768 -0.60868 18.7046 -24.234 0.0496218 0.113702 2.59581 -39.7283 3.78282 9.23673 -4.20556 2.0327 -2.63417 -9.64668 -0.801013 -0.852353 -38.7721 -0.655187 -3.17758 11.7685 0.121368 -2.32622 -40.4017 -6.04875 -4.80345 3.58524 15.7213 0.779096 -9.8844 12.4959 1.31439e-15 -7.42417e-16 -4.02981e-17 -9.23673 -4.20556 2.0327 -20.5609 -14.8745 17.8988 0.852353 -38.7721 -0.655187 2.97116 11.0191 -0.0936766 2.32622 -40.4017 -6.04875 14.3208 0.00705662 -16.2445 -0.779096 -9.8844 12.4959 -1.19783e-15 -5.40286e-16 -1.27189e-14 
5.84806 93.0125 17.8667 7.93955 0.642584 -1.70268 0 5.07867 -1.15138 -1.58621 -5.6318 1.01677 0 5.61661 1.07143 -1.2337 -4.17027 0.753448 -1.02604e-17 5.98978 0.11501 -0.878023 -2.02267 0.681652 -1.10457e-17 6.50583 -0.443523 -0.58893 1.36068 0.641637 -1.97295e-17 7.60548 -1.50593 0.00807632 2.34554 0.722951 -2.53307e-17 9.49737 -0.914492 0.67468 2.52689 0.623646 -2.90401e-17 10.5513 1.57691 0.127019 -0.0242589 -0.0416204 -1.29193e-17 4.78644 0.715339 1.28 4.00828 0.0501201 -1.8116e-17 4.82109 0.421791 -0.824837 -3.15348 -0.212797 -2.00958e-17 4.83041 0.765062 -0.63302 -0.591543 -1.82875 1.23299 -7.60731 7.53374 24.8323 -3.8089 6.22777 12.9547 3.2495 -3.26872 6.95581 -42.1343 -13.6887 29.2081 0.0598081 0.137039 5.01426 -1.08015 -24.8913 24.234 0.0496219 0.113701 -0.202002 -43.4575 -3.4919 -1.23299 -7.60729 7.53365 -25.1733 -3.96805 -9.17503 -12.9547 3.2495 -3.26872 11.4274 -54.6509 36.4894 -29.2081 0.0598081 0.137039 -5.1302 -1.13387 25.5033 -24.234 0.0496218 0.113702 -2.33784 -45.1564 -4.74739 9.23673 -4.20556 2.0327 -2.30817 -9.1393 -0.0933052 -0.852353 -38.7721 -0.655187 -3.0271 11.2225 0.100914 -2.32622 -40.4017 -6.04875 -6.45872 3.16964 16.1401 0.779096 -9.8844 12.4959 2.11977e-15 -7.0785e-16 -7.48645e-17 -9.23673 -4.20556 2.0327 -20.7237 -15.2938 17.8383 0.852353 -38.7721 -0.655187 3.0885 11.4455 -0.109087 2.32622 -40.4017 -6.04875 17.4904 1.48662 -16.3092 -0.779096 -9.8844 12.4959 1.12201e-16 -6.0002e-16 -1.27756e-14 
6.41133 93.257 18.2813 7.54987 -0.391817 -1.54986 0 5.07867 -1.15138 -1.68281 -5.90433 0.970694 0 5.61661 1.07143 -1.28334 -4.42657 0.675356 -1.02604e-17 5.98978 0.11501 -0.873718 -2.13895 0.623076 -1.10457e-17 6.50583 -0.443523 -0.533994 1.42203 0.585367 -1.97295e-17 7.60548 -1.50593 0.0757796 2.61334 0.667055 -2.53307e-17 9.49737 -0.914492 0.731005 2.94105 0.52833 -2.90401e-17 10.5513 1.57691 0.122432 0.0328112 -0.0526037 -1.29193e-17 4.78644 0.715339 1.33136 6.21442 0.98852 -1.8116e-17 4.82109 0.421791 -0.184235 -3.87624 0.258136 -2.00958e-17 4.83041 0.765062 -0.878996 -1.34535 -3.09904 1.23299 -7.60731 7.53374 25.613 -4.55778 7.37636 12.9547 3.2495 -3.26872 3.15431 -45.0337 -18.4878 29.2081 0.0598081 0.137039 4.94341 -1.04801 -24.5176 24.234 0.0496219 0.113701 -1.80797 -39.101 1.10574 -1.23299 -7.60729 7.53365 -25.9595 -4.52239 -10.1209 -12.9547 3.2495 -3.26872 19.5743 -54.6029 45.2235 -29.2081 0.0598081 0.137039 -4.68544 -0.935514 23.1639 -24.234 0.0496218 0.113702 -3.8477 -42.8519 -10.0949 9.23673 -4.20556 2.0327 -2.22669 -7.98016 0.890668 -0.852353 -38.7721 -0.655187 -2.90916 10.7933 0.0858892 -2.32622 -40.4017 -6.04875 -6.13445 4.21374 16.1091 0.779096 -9.8844 12.4959 6.05832e-16 -7.70931e-16 -1.17836e-17 -9.23673 -4.20556 2.0327 -20.3522 -14.2834 18.2949 0.852353 -38.7721 -0.655187 3.0359 11.2545 -0.102071 2.32622 -40.4017 -6.04875 16.3969 3.46169 -16.7043 -0.779096 -9.8844 12.4959 -5.12329e-18 -5.93008e-16 -1.27686e-14 
